# xmcd CD database file
#
# Track frame offsets:
#	150
#	23787
#	45372
#	70215
#	91800
#	111052
#	131157
#	153345
#
# Disc length: 2238 seconds
#
# Revision: 1
# Processed by: cddbd v1.5PL3 Copyright (c) Steve Scherf et al.
# Submitted via: CDex 1.51
#
DISCID=5d08bc08
DTITLE=甲斐バンド - REPEAT and FADE  Disc1
DYEAR=1986
DGENRE=Rock
TTITLE0=25時の追跡 (instrumental)
TTITLE1=エコーズ・オブ・ラヴ
TTITLE2=JOUJOUKA (ジョジョカ)
TTITLE3=ロマン・ホリデー
TTITLE4=O'l Night Long Cruising
TTITLE5=サタニック・ウーマン
TTITLE6=レイニー・ドライヴ
TTITLE7=メガロポリス・ノクターン
EXTD=YEAR: 1986
EXTT0=
EXTT1=
EXTT2=
EXTT3=
EXTT4=
EXTT5=
EXTT6=
EXTT7=
PLAYORDER=
